<svg width="512" height="512" viewBox="0 0 512 512" fill="none" xmlns="http://www.w3.org/2000/svg">
<rect width="512" height="512" rx="128" fill="#D1ECFF"/>
<g filter="url(#filter0_dddd_1_2)">
<path d="M89.9709 304.058C101.553 304.058 110.942 313.447 110.942 325.029C110.942 336.611 101.553 346 89.9709 346C78.389 346 69 336.611 69 325.029C69 313.447 78.389 304.058 89.9709 304.058Z" fill="#0093FF"/>
<path d="M147.641 166C159.223 166 168.612 175.389 168.612 186.971V325.029C168.612 336.611 159.223 346 147.641 346C136.059 346 126.67 336.611 126.67 325.029V186.971C126.67 175.389 136.059 166 147.641 166Z" fill="#0093FF"/>
<path d="M277.835 166C289.417 166 298.806 175.389 298.806 186.971C298.806 198.553 289.417 207.942 277.835 207.942H238.515C231.758 207.942 226.282 213.419 226.282 220.175V291.825C226.282 298.581 231.758 304.058 238.515 304.058H277.835C289.417 304.058 298.806 313.447 298.806 325.029C298.806 336.611 289.417 346 277.835 346H238.515C208.595 346 184.34 321.745 184.34 291.825V220.175C184.34 190.255 208.595 166 238.515 166H277.835Z" fill="#0093FF"/>
<path fill-rule="evenodd" clip-rule="evenodd" d="M409.777 166C428.115 166 442.981 180.866 442.981 199.204V312.796C442.981 330.848 428.575 345.534 410.633 345.989L409.777 346H347.738L346.881 345.989C328.939 345.534 314.534 330.848 314.534 312.796V199.204C314.534 180.866 329.4 166 347.738 166H409.777ZM356.476 304.058H401.039V207.942H356.476V304.058Z" fill="#0093FF"/>
</g>
<defs>
<filter id="filter0_dddd_1_2" x="55" y="163" width="401.981" height="233" filterUnits="userSpaceOnUse" color-interpolation-filters="sRGB">
<feFlood flood-opacity="0" result="BackgroundImageFix"/>
<feColorMatrix in="SourceAlpha" type="matrix" values="0 0 0 0 0 0 0 0 0 0 0 0 0 0 0 0 0 0 127 0" result="hardAlpha"/>
<feOffset dy="2"/>
<feGaussianBlur stdDeviation="2.5"/>
<feColorMatrix type="matrix" values="0 0 0 0 0 0 0 0 0 0.576471 0 0 0 0 1 0 0 0 0.14 0"/>
<feBlend mode="normal" in2="BackgroundImageFix" result="effect1_dropShadow_1_2"/>
<feColorMatrix in="SourceAlpha" type="matrix" values="0 0 0 0 0 0 0 0 0 0 0 0 0 0 0 0 0 0 127 0" result="hardAlpha"/>
<feOffset dy="9"/>
<feGaussianBlur stdDeviation="4.5"/>
<feColorMatrix type="matrix" values="0 0 0 0 0 0 0 0 0 0.576471 0 0 0 0 1 0 0 0 0.13 0"/>
<feBlend mode="normal" in2="effect1_dropShadow_1_2" result="effect2_dropShadow_1_2"/>
<feColorMatrix in="SourceAlpha" type="matrix" values="0 0 0 0 0 0 0 0 0 0 0 0 0 0 0 0 0 0 127 0" result="hardAlpha"/>
<feOffset dy="20"/>
<feGaussianBlur stdDeviation="6"/>
<feColorMatrix type="matrix" values="0 0 0 0 0 0 0 0 0 0.576471 0 0 0 0 1 0 0 0 0.07 0"/>
<feBlend mode="normal" in2="effect2_dropShadow_1_2" result="effect3_dropShadow_1_2"/>
<feColorMatrix in="SourceAlpha" type="matrix" values="0 0 0 0 0 0 0 0 0 0 0 0 0 0 0 0 0 0 127 0" result="hardAlpha"/>
<feOffset dy="36"/>
<feGaussianBlur stdDeviation="7"/>
<feColorMatrix type="matrix" values="0 0 0 0 0 0 0 0 0 0.576471 0 0 0 0 1 0 0 0 0.02 0"/>
<feBlend mode="normal" in2="effect3_dropShadow_1_2" result="effect4_dropShadow_1_2"/>
<feBlend mode="normal" in="SourceGraphic" in2="effect4_dropShadow_1_2" result="shape"/>
</filter>
</defs>
</svg>
